<svg width="22" height="21" viewBox="0 0 22 21" fill="none" xmlns="http://www.w3.org/2000/svg">
<path d="M15.0681 20.108H7.03607C5.43499 20.1061 3.90003 19.4693 2.7679 18.3371C1.63577 17.205 0.998923 15.67 0.99707 14.069V6.04098C0.998658 4.43973 1.63539 2.90451 2.76755 1.77216C3.89971 0.639813 5.43482 0.00282968 7.03607 0.000976562H15.0641C16.6651 0.0028292 18.2001 0.639674 19.3322 1.7718C20.4644 2.90394 21.1012 4.4389 21.1031 6.03998V14.068C21.1015 15.6685 20.4653 17.2031 19.334 18.3354C18.2027 19.4676 16.6686 20.1051 15.0681 20.108ZM7.03607 1.89297C5.93662 1.8943 4.88259 2.33164 4.10516 3.10907C3.32773 3.88649 2.8904 4.94053 2.88907 6.03998V14.068C2.88881 15.1685 3.32544 16.224 4.10304 17.0028C4.88064 17.7815 5.93558 18.2197 7.03607 18.221H15.0641C16.1638 18.2199 17.2182 17.7827 17.996 17.0053C18.7738 16.2279 19.2115 15.1737 19.2131 14.074V6.04597C19.2115 4.94626 18.7738 3.89208 17.996 3.11465C17.2182 2.33722 16.1638 1.90003 15.0641 1.89898L7.03607 1.89297Z" fill="white"/>
</svg>
